# xmcd
#
# Track frame offsets: 
#        150
#        17349
#        30962
#        48257
#        64729
#        84399
#        101349
#        119133
#        136653
#        153045
#        170160
#        186846
#        204494
#
# Disc length: 2984 seconds
#
# Revision: 0
# Processed by: cddbd v1.5.1PL0 Copyright (c) Steve Scherf et al.
# Submitted via: ExactAudioCopy v0.95a3
#
DISCID=9c0ba60d
DTITLE=Sandro Coelho - Paixão
DYEAR=2003
DGENRE=Freestyle
TTITLE0=Ela Pegou Meu Coração
TTITLE1=No Balanço Da Neguinha
TTITLE2=Te Tatuei No Coração
TTITLE3=Amei Demais Você
TTITLE4=O Mundo Parou
TTITLE5=Mulher Da Minha Vida
TTITLE6=Olha Pra Min
TTITLE7=Se Eu Tivesse O Seu Amor
TTITLE8=Ela Que Me Dar
TTITLE9=Minha Vida, Minha Viola
TTITLE10=Distância
TTITLE11=Melodia Pra Uma Flor
TTITLE12=Velho Oeste
EXTD=
EXTT0=
EXTT1=
EXTT2=
EXTT3=
EXTT4=
EXTT5=
EXTT6=
EXTT7=
EXTT8=
EXTT9=
EXTT10=
EXTT11=
EXTT12=
PLAYORDER=
